<?xml version="1.0" encoding="utf-8"?>
<!-- Generator: Adobe Illustrator 16.0.0, SVG Export Plug-In . SVG Version: 6.00 Build 0)  -->
<!DOCTYPE svg PUBLIC "-//W3C//DTD SVG 1.1//EN" "http://www.w3.org/Graphics/SVG/1.1/DTD/svg11.dtd">
<svg version="1.1"
	 id="Layer_1" xmlns:cc="http://creativecommons.org/ns#" xmlns:svg="http://www.w3.org/2000/svg" xmlns:dc="http://purl.org/dc/elements/1.1/" xmlns:rdf="http://www.w3.org/1999/02/22-rdf-syntax-ns#"
	 xmlns="http://www.w3.org/2000/svg" xmlns:xlink="http://www.w3.org/1999/xlink" x="0px" y="0px" width="323.75px" height="256px"
	 viewBox="-43 17 323.75 256" enable-background="new -43 17 323.75 256" xml:space="preserve">
<g>
	<g>
		<path d="M160.199,139.071c-0.662,0-1.299-0.263-1.77-0.734c-0.503-0.504-0.768-1.2-0.726-1.911l3.054-52.256
			c0.057-0.982,0.686-1.84,1.605-2.19c0.29-0.11,0.591-0.164,0.89-0.164c0.65,0,1.288,0.254,1.766,0.73l11.046,11.023l47.682-47.359
			l-16.889-16.774c-0.698-0.693-0.925-1.732-0.579-2.653c0.347-0.921,1.2-1.554,2.182-1.616l65.421-4.162
			c0.054-0.003,0.106-0.005,0.159-0.005c0.661,0,1.298,0.262,1.769,0.733c0.508,0.508,0.772,1.211,0.727,1.928l-4.189,64.977
			c-0.063,0.979-0.692,1.83-1.609,2.177c-0.288,0.109-0.588,0.162-0.886,0.162c-0.648,0-1.285-0.252-1.762-0.726l-16.912-16.798
			l-47.688,47.364l11.082,11.008c0.7,0.695,0.926,1.738,0.575,2.66c-0.35,0.923-1.21,1.554-2.196,1.609l-52.61,2.973
			C160.293,139.07,160.246,139.071,160.199,139.071z"/>
		<path fill="#7C7C7C" d="M274.041,23.5h0.005 M274.041,23.5l-4.189,64.977l-18.674-18.548l-51.235,50.888l12.868,12.781
			l-52.611,2.973l3.054-52.256l12.808,12.782l51.233-50.887L208.62,27.662L274.041,23.5 M274.041,18.5c-0.027,0-0.055,0-0.082,0
			c-0.095,0.002-0.188,0.006-0.281,0.013l-65.375,4.159c-1.964,0.125-3.672,1.39-4.363,3.232c-0.692,1.842-0.239,3.919,1.157,5.305
			l15.103,15L176.07,90.041l-9.284-9.265c-0.955-0.953-2.232-1.461-3.533-1.461c-0.598,0-1.2,0.107-1.779,0.328
			c-1.839,0.701-3.096,2.416-3.211,4.381l-3.055,52.255c-0.083,1.424,0.445,2.814,1.453,3.824c0.94,0.942,2.215,1.468,3.539,1.468
			c0.094,0,0.188-0.003,0.283-0.008l52.611-2.973c1.971-0.111,3.691-1.372,4.393-3.218c0.7-1.846,0.249-3.931-1.151-5.322
			l-9.297-9.233l44.141-43.84l15.15,15.048c0.954,0.948,2.228,1.453,3.524,1.453c0.595,0,1.194-0.106,1.771-0.324
			c1.834-0.695,3.092-2.397,3.218-4.354l4.179-64.809c0.016-0.161,0.024-0.325,0.024-0.49c0-2.756-2.229-4.992-4.982-5
			C274.054,18.5,274.047,18.5,274.041,18.5L274.041,18.5z"/>
	</g>
	<g>
		<path d="M176.061,79.147c-0.618,0-1.236-0.228-1.719-0.685l-2.513-2.378l-22.67-22.513c-0.718-0.714-0.936-1.791-0.55-2.727
			c0.386-0.937,1.299-1.547,2.312-1.547h50.337c1.015,0,1.928,0.613,2.313,1.551c0.385,0.938,0.164,2.017-0.558,2.729l-25.197,24.85
			C177.331,78.906,176.696,79.147,176.061,79.147z"/>
		<path fill="#7C7C7C" d="M201.258,51.797h0.005 M201.258,51.797l-25.197,24.85l-2.513-2.378l-22.627-22.471H201.258
			 M201.263,46.797h-0.005h-50.337c-2.025,0-3.851,1.222-4.623,3.095s-0.338,4.026,1.099,5.453l22.627,22.471
			c0.028,0.028,0.058,0.056,0.086,0.083l2.513,2.378c0.965,0.913,2.202,1.369,3.438,1.369c1.27,0,2.538-0.481,3.511-1.44
			l25.133-24.786c0.958-0.911,1.557-2.198,1.557-3.624C206.261,49.036,204.025,46.797,201.263,46.797L201.263,46.797z"/>
	</g>
	<g>
		<path d="M-36,269.5c-1.381,0-2.5-1.119-2.5-2.5V51.797c0-1.381,1.119-2.5,2.5-2.5h186.504c0.688,0,1.346,0.284,1.818,0.785
			c0.473,0.5,0.717,1.174,0.677,1.861l-1.857,31.806l-2.992,52.134l-0.793,13.426l13.533-0.788l52.676-2.971l32.199-1.844
			c0.048-0.003,0.095-0.004,0.143-0.004c0.637,0,1.251,0.243,1.717,0.683c0.5,0.472,0.783,1.13,0.783,1.817V267
			c0,1.381-1.119,2.5-2.5,2.5H-36z M208.878,235.965l-44.833-39.25l-32.259,19.111c-0.396,0.234-0.837,0.349-1.273,0.349
			c-0.663,0-1.318-0.263-1.803-0.767l-61.312-63.755l-7.861,3.207l-62.616,81.104H208.878z"/>
		<path fill="#7C7C7C" d="M150.505,51.797l-1.857,31.806l-2.992,52.136l-0.958,16.229l16.34-0.951l52.671-2.971l32.201-1.844V267
			H-36V51.797H150.505 M-8.167,238.465h223.552l-0.06-0.179l-50.995-44.646l-33.818,20.034l-62.487-64.978L57.97,152.8
			L-8.167,238.465 M150.505,46.797H-36c-2.761,0-5,2.239-5,5V267c0,2.762,2.239,5,5,5H245.91c2.762,0,5-2.238,5-5V146.202
			c0-1.376-0.566-2.69-1.567-3.635c-0.931-0.879-2.159-1.365-3.433-1.365c-0.095,0-0.19,0.003-0.286,0.008l-32.201,1.844
			l-52.667,2.971l-10.735,0.625l0.626-10.615l2.993-52.144l1.857-31.801c0.08-1.375-0.41-2.721-1.354-3.723
			C153.197,47.365,151.881,46.797,150.505,46.797L150.505,46.797z M61.105,156.921l5.667-2.312l60.136,62.532
			c0.97,1.008,2.28,1.534,3.606,1.534c0.874,0,1.753-0.229,2.546-0.698l30.701-18.188l38.466,33.676H2.009L61.105,156.921
			L61.105,156.921z"/>
	</g>
	<g>
		<path d="M245.911,148.403c-0.648,0-1.285-0.252-1.763-0.727l-25.259-25.085c-0.473-0.47-0.738-1.109-0.738-1.775
			s0.267-1.305,0.74-1.774l25.259-25.027c0.478-0.473,1.113-0.724,1.761-0.724c0.323,0,0.65,0.063,0.961,0.192
			c0.932,0.388,1.538,1.298,1.538,2.308v50.113c0,1.01-0.607,1.92-1.539,2.308C246.56,148.34,246.234,148.403,245.911,148.403z"/>
		<path fill="#7C7C7C" d="M245.91,95.79v50.113l-22.745-22.59l-2.514-2.496L245.91,95.79 M245.911,90.79
			c-1.293,0-2.565,0.502-3.521,1.448l-25.259,25.027c-0.946,0.938-1.479,2.216-1.48,3.549c-0.001,1.333,0.531,2.611,1.477,3.551
			l2.514,2.496l22.745,22.59c0.955,0.948,2.229,1.452,3.524,1.452c0.647,0,1.3-0.125,1.92-0.384
			c1.864-0.776,3.079-2.597,3.079-4.616V95.79c0-2.018-1.213-3.838-3.076-4.615C247.212,90.916,246.559,90.79,245.911,90.79
			L245.911,90.79z"/>
	</g>
</g>
</svg>
