<?xml version="1.0" encoding="utf-8"?>
<!-- Generator: Adobe Illustrator 16.0.0, SVG Export Plug-In . SVG Version: 6.00 Build 0)  -->
<!DOCTYPE svg PUBLIC "-//W3C//DTD SVG 1.1//EN" "http://www.w3.org/Graphics/SVG/1.1/DTD/svg11.dtd">
<svg version="1.1" id="Layer_1" xmlns="http://www.w3.org/2000/svg" xmlns:xlink="http://www.w3.org/1999/xlink" x="0px" y="0px"
	 width="232px" height="92px" viewBox="0 0 232 92" enable-background="new 0 0 232 92" xml:space="preserve">
<g id="Layer_2" display="none" opacity="0.7">
	<g display="inline" opacity="0.4">
		<g>

				<image overflow="visible" enable-background="new    " width="208" height="103" xlink:href="D773233A2A8DA9CE.png"  transform="matrix(1 0 0 1 48 -21.5)">
			</image>
		</g>
	</g>
	<g display="inline" opacity="0.4">
		<g>

				<image overflow="visible" enable-background="new    " width="170" height="101" xlink:href="D773233A2A8DA9D8.png"  transform="matrix(1 0 0 1 49 12.5)">
			</image>
		</g>
	</g>
	<g display="inline" opacity="0.4">
		<g>

				<image overflow="visible" enable-background="new    " width="126" height="133" xlink:href="D773233A2A8DA9D9.png"  transform="matrix(1 0 0 1 -21 -18.5)">
			</image>
		</g>
	</g>
	<g display="inline" opacity="0.4">
		<g>

				<image overflow="visible" enable-background="new    " width="107" height="95" xlink:href="D773233A2A8DA9DB.png"  transform="matrix(1 0 0 1 4 -7.5)">
			</image>
		</g>
	</g>
</g>
<g id="Shadow" opacity="0.3">
	<g>
		<g id="Layer_1_8_">
			<path d="M203.387,43.743l12.199-29.691h4.738l-12.199,29.691H203.387z M188.762,29.923h8.293
				c-0.082-1.395-0.578-2.446-1.484-3.157c-0.734-0.578-1.621-0.867-2.66-0.871c-0.996,0.004-1.867,0.332-2.621,0.989
				C189.402,27.622,188.891,28.634,188.762,29.923z M203.215,33.716h-14.453c0.023,1.843,0.551,3.226,1.582,4.144
				c0.812,0.766,1.812,1.145,3,1.145c1.078,0,2-0.301,2.766-0.906c0.602-0.473,1.391-1.407,2.367-2.805l4.621,2.41
				c-2.082,3.867-5.48,5.801-10.188,5.805c-3.188-0.004-5.715-1.004-7.582-3.004c-1.82-1.895-2.727-4.367-2.723-7.422
				c-0.004-3.684,0.91-6.551,2.742-8.606c1.828-2.05,4.348-3.078,7.562-3.082c3.578,0.004,6.25,1.239,8.016,3.711
				C202.422,27.239,203.188,30.11,203.215,33.716z M162.316,42.954V21.946h6.156v1.856c1.367-1.602,3.395-2.403,6.082-2.407
				c4.238,0.004,6.359,2.016,6.359,6.039v15.52h-6.16V29.806c-0.004-2.29-1.004-3.434-3.004-3.438
				c-2.188,0.004-3.281,1.176-3.277,3.516v13.07H162.316z M145.953,29.923h8.293c-0.082-1.395-0.578-2.446-1.484-3.157
				c-0.734-0.578-1.621-0.867-2.66-0.871c-0.996,0.004-1.867,0.332-2.621,0.989C146.594,27.622,146.082,28.634,145.953,29.923z
				 M160.406,33.716h-14.453c0.023,1.843,0.551,3.226,1.582,4.144c0.812,0.766,1.812,1.145,3,1.145c1.078,0,2-0.301,2.766-0.906
				c0.602-0.473,1.391-1.407,2.367-2.805l4.621,2.41c-2.082,3.867-5.48,5.801-10.188,5.805c-3.189-0.004-5.715-1.004-7.582-3.004
				c-1.82-1.895-2.727-4.367-2.723-7.422c-0.004-3.684,0.91-6.551,2.742-8.606c1.828-2.05,4.348-3.078,7.562-3.082
				c3.578,0.004,6.25,1.239,8.016,3.711C159.613,27.239,160.379,30.11,160.406,33.716z M128.297,42.954V21.946h6.156v2.133
				c1.367-1.238,3.289-1.949,5.766-2.133l0.039,5.43l-0.668,0.078c-1.926,0.242-3.242,0.57-3.949,0.984
				c-0.797,0.477-1.191,1.274-1.188,2.399v12.117H128.297z M111.933,29.923h8.294c-0.082-1.395-0.578-2.446-1.484-3.157
				c-0.734-0.578-1.621-0.867-2.66-0.871c-0.996,0.004-1.867,0.332-2.621,0.989C112.574,27.622,112.062,28.634,111.933,29.923z
				 M126.387,33.716h-14.454c0.024,1.843,0.551,3.226,1.582,4.144c0.813,0.766,1.813,1.145,3,1.145c1.078,0,2-0.301,2.767-0.906
				c0.602-0.473,1.391-1.407,2.367-2.805l4.621,2.41c-2.082,3.867-5.48,5.801-10.188,5.805c-3.188-0.004-5.715-1.004-7.582-3.004
				c-1.821-1.895-2.727-4.367-2.723-7.422c-0.004-3.684,0.91-6.551,2.742-8.606c1.828-2.05,4.348-3.078,7.563-3.082
				c3.578,0.004,6.25,1.239,8.016,3.711C125.594,27.239,126.359,30.11,126.387,33.716z M105.101,24.434l-3.793,3.711
				c-0.582-0.679-1.461-1.234-2.644-1.656c-1.055-0.396-2.11-0.59-3.16-0.594c-1.766,0.004-2.649,0.543-2.645,1.621
				c-0.004,0.922,1.078,1.606,3.238,2.051c3.211,0.688,5.196,1.199,5.961,1.539c2.157,1.004,3.239,2.637,3.239,4.899
				c0,2.554-1,4.492-3,5.804c-1.711,1.133-3.872,1.696-6.477,1.7c-2.215-0.004-4.109-0.344-5.687-1.028
				c-1.45-0.605-2.977-1.644-4.579-3.121l3.829-3.316c2.054,1.976,4.265,2.961,6.636,2.961c2.235,0,3.352-0.711,3.356-2.133
				c-0.004-0.84-1.082-1.469-3.239-1.895c-3.16-0.656-5.148-1.171-5.961-1.539c-2.164-0.972-3.242-2.539-3.238-4.699
				c-0.004-2.445,0.942-4.328,2.84-5.648c1.602-1.129,3.617-1.692,6.043-1.696C98.976,21.399,102.07,22.411,105.101,24.434z"/>
			<path d="M171.988,54.169c3.34,0.004,6.039,0.976,8.094,2.922c2.055,1.949,3.082,4.66,3.082,8.134
				c0,3.476-1.027,6.187-3.082,8.135c-2.055,1.947-4.754,2.918-8.094,2.923c-3.348-0.005-6.047-0.976-8.098-2.923
				c-2.055-1.948-3.082-4.659-3.078-8.135c-0.004-3.474,1.023-6.185,3.078-8.134C165.941,55.145,168.641,54.173,171.988,54.169z
				 M171.988,58.868c-1.688,0.004-2.965,0.612-3.828,1.827c-0.797,1.117-1.191,2.625-1.188,4.529
				c-0.004,1.909,0.391,3.42,1.188,4.53c0.863,1.222,2.141,1.832,3.828,1.828c3.34,0.004,5.012-2.194,5.016-6.599
				c-0.004-1.797-0.398-3.241-1.184-4.332C174.922,59.466,173.645,58.872,171.988,58.868z M159.137,52.312h-6.156v-4.698h6.156
				V52.312z M152.98,54.721h6.156v21.006h-6.156V54.721z M143.684,64.79c-0.004-4.078-1.438-6.117-4.305-6.121
				c-2.82,0.004-4.23,2.187-4.227,6.556c-0.004,4.371,1.406,6.553,4.227,6.553C142.246,71.777,143.68,69.45,143.684,64.79z
				 M149.844,47.614v28.112h-5.922v-2.054h-0.082c-1.367,1.738-3.25,2.604-5.645,2.609c-2.688-0.005-4.832-0.871-6.438-2.609
				c-1.789-1.891-2.711-4.653-2.762-8.289c-0.059-3.84,0.887-6.75,2.84-8.727c1.602-1.656,3.629-2.484,6.082-2.488
				c2.418,0.004,4.34,0.738,5.766,2.211v-8.767L149.844,47.614L149.844,47.614z M127.305,54.721v21.006h-6.16v-1.854
				c-1.371,1.604-3.398,2.405-6.083,2.41c-4.238-0.005-6.355-2.017-6.355-6.043V54.721h6.156v13.741
				c-0.004,1.897,0.997,2.847,3.004,2.845c2.18,0.002,3.273-1.091,3.277-3.279V54.721H127.305z M105.414,60.251v11.095
				c0,1.975,0.183,3.438,0.554,4.381h-5.687c-0.211-0.656-0.344-1.377-0.395-2.17h-0.078c-0.504,0.793-1.41,1.448-2.726,1.971
				c-1.211,0.5-2.41,0.75-3.59,0.755c-2.086-0.005-3.758-0.543-5.016-1.621c-1.347-1.134-2.019-2.672-2.015-4.621
				c-0.004-2.392,0.957-4.207,2.882-5.449c1.629-1.051,4.262-1.827,7.899-2.327l2.25-0.318v-1.737
				c-0.004-1.496-0.977-2.246-2.922-2.25c-1.004,0.004-1.754,0.215-2.25,0.633c-0.504,0.425-0.832,1.148-0.988,2.173H87.41
				c0.125-4.396,3.008-6.591,8.648-6.595c3.075,0.004,5.352,0.422,6.828,1.263C104.57,56.407,105.414,58.016,105.414,60.251z
				 M99.492,66.962v-1.461l-4.145,1.183c-1.976,0.556-2.964,1.461-2.961,2.728c-0.003,1.578,0.957,2.366,2.883,2.366
				c1.262,0,2.281-0.414,3.059-1.241C99.101,69.708,99.488,68.516,99.492,66.962z"/>
			<path d="M45.218,67.247c1.504,2.435-2.921,8.81-13.128,2.519C13.465,58.286,21.34,35.708,21.34,35.708
				C15.633,59.575,40.465,59.566,45.218,67.247z M48.234,16.528C30.984,16.528,17,30.513,17,47.764
				c0,8.668,3.605,16.397,9.304,22.057c0.329,0.259,0.813,0.656,1.446,1.138c1.664,1.312,4.562,3.431,8.558,4.987
				c3.137,1.113,7.981,1.125,6.91,1.15c1.082,0.043,4.012-0.158,5.082-0.392c1.063-0.233,2.102-0.625,3.067-1.156
				c1.93-1.063,3.543-2.698,4.637-4.633c1.093-1.938,1.675-4.164,1.687-6.401c0.02-2.244-0.574-4.505-1.715-6.457
				c-0.57-0.978-1.273-1.875-2.074-2.677c-0.801-0.797-1.707-1.485-2.668-2.067c-0.484-0.293-0.98-0.554-1.488-0.797
				c-0.492-0.233-0.961-0.459-1.434-0.707c-0.949-0.492-1.871-1.019-2.765-1.588c-1.789-1.146-3.481-2.443-4.973-3.931
				c-1.492-1.488-2.793-3.164-3.781-5.004c-0.993-1.832-1.668-3.836-1.864-5.891c-0.203-2.05,0.102-4.14,0.914-6.023
				c0.801-1.891,2.122-3.551,3.747-4.844c1.621-1.301,3.539-2.222,5.535-2.941c3.996-1.426,8.367-1.75,12.586-1.043
				c4.23,0.668,8.308,2.289,11.996,4.543l0.011-0.016c-5.597-5.301-13.16-8.555-21.48-8.555L48.234,16.528z"/>
			<path d="M41.183,37.306c0,0,13.45,7.882,22.317,3.816c9.586-4.395,8.015-13.461,8.015-13.461
				c3.918,4.852,6.328,12.766,2.313,17.176C67.129,52.195,49.41,53.04,41.183,37.306z"/>
		</g>
	</g>
</g>
<g id="Layer_1_1_">
	<path fill="#FECE82" d="M201.316,42.743l12.199-29.691h4.738l-12.199,29.691H201.316z M186.691,28.923h8.293
		c-0.082-1.395-0.578-2.446-1.484-3.157c-0.734-0.578-1.621-0.867-2.66-0.871c-0.996,0.004-1.867,0.332-2.621,0.989
		C187.332,26.622,186.82,27.634,186.691,28.923z M201.145,32.716h-14.453c0.023,1.843,0.551,3.226,1.582,4.144
		c0.812,0.766,1.812,1.145,3,1.145c1.078,0,2-0.301,2.766-0.906c0.602-0.473,1.391-1.407,2.367-2.805l4.621,2.41
		c-2.082,3.867-5.48,5.801-10.188,5.805c-3.188-0.004-5.715-1.004-7.582-3.004c-1.82-1.895-2.727-4.367-2.723-7.422
		c-0.004-3.684,0.91-6.551,2.742-8.606c1.828-2.05,4.348-3.078,7.562-3.082c3.578,0.004,6.25,1.239,8.016,3.711
		C200.352,26.239,201.117,29.11,201.145,32.716z M160.246,41.954V20.946h6.156v1.856c1.367-1.602,3.395-2.403,6.082-2.407
		c4.238,0.004,6.359,2.016,6.359,6.039v15.52h-6.16V28.806c-0.004-2.29-1.004-3.434-3.004-3.438
		c-2.188,0.004-3.281,1.176-3.277,3.516v13.07H160.246z M143.883,28.923h8.293c-0.082-1.395-0.578-2.446-1.484-3.157
		c-0.734-0.578-1.621-0.867-2.66-0.871c-0.996,0.004-1.867,0.332-2.621,0.989C144.523,26.622,144.012,27.634,143.883,28.923z
		 M158.336,32.716h-14.453c0.023,1.843,0.551,3.226,1.582,4.144c0.812,0.766,1.812,1.145,3,1.145c1.078,0,2-0.301,2.766-0.906
		c0.602-0.473,1.391-1.407,2.367-2.805l4.621,2.41c-2.082,3.867-5.48,5.801-10.188,5.805c-3.188-0.004-5.715-1.004-7.582-3.004
		c-1.82-1.895-2.727-4.367-2.723-7.422c-0.004-3.684,0.91-6.551,2.742-8.606c1.828-2.05,4.348-3.078,7.562-3.082
		c3.578,0.004,6.25,1.239,8.016,3.711C157.543,26.239,158.309,29.11,158.336,32.716z M126.227,41.954V20.946h6.156v2.133
		c1.367-1.238,3.289-1.949,5.766-2.133l0.039,5.43l-0.668,0.078c-1.926,0.242-3.242,0.57-3.949,0.984
		c-0.797,0.477-1.191,1.274-1.188,2.399v12.117H126.227z M109.863,28.923h8.293c-0.082-1.395-0.578-2.446-1.484-3.157
		c-0.734-0.578-1.621-0.867-2.66-0.871c-0.996,0.004-1.867,0.332-2.621,0.989C110.504,26.622,109.992,27.634,109.863,28.923z
		 M124.316,32.716h-14.454c0.024,1.843,0.551,3.226,1.582,4.144c0.813,0.766,1.813,1.145,3,1.145c1.078,0,2-0.301,2.766-0.906
		c0.602-0.473,1.391-1.407,2.367-2.805l4.621,2.41c-2.082,3.867-5.48,5.801-10.187,5.805c-3.188-0.004-5.715-1.004-7.582-3.004
		c-1.821-1.895-2.727-4.367-2.723-7.422c-0.004-3.684,0.91-6.551,2.742-8.606c1.828-2.05,4.348-3.078,7.563-3.082
		c3.578,0.004,6.25,1.239,8.015,3.711C123.523,26.239,124.289,29.11,124.316,32.716z M103.031,23.434l-3.793,3.711
		c-0.582-0.679-1.461-1.234-2.644-1.656c-1.055-0.396-2.11-0.59-3.16-0.594c-1.766,0.004-2.649,0.543-2.645,1.621
		c-0.004,0.922,1.078,1.606,3.238,2.051c3.211,0.688,5.196,1.199,5.961,1.539c2.157,1.004,3.239,2.637,3.239,4.899
		c0,2.554-1,4.492-3,5.804c-1.711,1.133-3.872,1.696-6.477,1.7c-2.215-0.004-4.109-0.344-5.687-1.028
		c-1.45-0.605-2.977-1.644-4.579-3.121l3.829-3.316c2.054,1.976,4.265,2.961,6.636,2.961c2.235,0,3.352-0.711,3.356-2.133
		c-0.004-0.84-1.082-1.469-3.239-1.895c-3.16-0.656-5.148-1.171-5.961-1.539c-2.164-0.972-3.242-2.539-3.238-4.699
		c-0.004-2.445,0.942-4.328,2.84-5.648c1.602-1.129,3.617-1.692,6.043-1.696C96.906,20.399,100,21.411,103.031,23.434z"/>
	<path fill="#FECE82" d="M169.918,53.169c3.34,0.004,6.039,0.976,8.094,2.922c2.055,1.949,3.082,4.66,3.082,8.134
		c0,3.476-1.027,6.187-3.082,8.135c-2.055,1.947-4.754,2.918-8.094,2.923c-3.348-0.005-6.047-0.976-8.098-2.923
		c-2.055-1.948-3.082-4.659-3.078-8.135c-0.004-3.474,1.023-6.185,3.078-8.134C163.871,54.145,166.57,53.173,169.918,53.169z
		 M169.918,57.868c-1.688,0.004-2.965,0.612-3.828,1.827c-0.797,1.117-1.191,2.625-1.188,4.529c-0.004,1.909,0.391,3.42,1.188,4.53
		c0.863,1.222,2.141,1.832,3.828,1.828c3.34,0.004,5.012-2.194,5.016-6.599c-0.004-1.797-0.398-3.241-1.184-4.332
		C172.852,58.466,171.574,57.872,169.918,57.868z M157.066,51.312h-6.156v-4.698h6.156V51.312z M150.91,53.721h6.156v21.006h-6.156
		V53.721z M141.613,63.79c-0.004-4.078-1.438-6.117-4.305-6.121c-2.82,0.004-4.23,2.187-4.227,6.556
		c-0.004,4.371,1.406,6.553,4.227,6.553C140.176,70.777,141.609,68.45,141.613,63.79z M147.773,46.614v28.112h-5.922v-2.054h-0.082
		c-1.367,1.738-3.25,2.604-5.645,2.609c-2.688-0.005-4.832-0.871-6.438-2.609c-1.789-1.891-2.711-4.653-2.762-8.289
		c-0.059-3.84,0.887-6.75,2.84-8.727c1.602-1.656,3.629-2.484,6.082-2.488c2.418,0.004,4.34,0.738,5.766,2.211v-8.767
		L147.773,46.614L147.773,46.614z M125.234,53.721v21.006h-6.16v-1.854c-1.371,1.604-3.398,2.405-6.082,2.41
		c-4.238-0.005-6.355-2.017-6.355-6.043V53.721h6.156v13.741c-0.004,1.897,0.996,2.847,3.004,2.845
		c2.18,0.002,3.273-1.091,3.277-3.279V53.721H125.234z M103.344,59.251v11.095c0,1.975,0.183,3.438,0.554,4.381h-5.687
		c-0.211-0.656-0.344-1.377-0.395-2.17h-0.078c-0.504,0.793-1.41,1.448-2.726,1.971c-1.211,0.5-2.41,0.75-3.59,0.755
		c-2.086-0.005-3.758-0.543-5.016-1.621c-1.347-1.134-2.019-2.672-2.015-4.621c-0.004-2.392,0.957-4.207,2.882-5.449
		c1.629-1.051,4.262-1.827,7.899-2.327l2.25-0.318v-1.737c-0.004-1.496-0.977-2.246-2.922-2.25c-1.004,0.004-1.754,0.215-2.25,0.633
		c-0.504,0.425-0.832,1.148-0.988,2.173H85.34c0.125-4.396,3.008-6.591,8.648-6.595c3.075,0.004,5.352,0.422,6.828,1.263
		C102.5,55.407,103.344,57.016,103.344,59.251z M97.422,65.962v-1.461l-4.145,1.183c-1.976,0.556-2.964,1.461-2.961,2.728
		c-0.003,1.578,0.957,2.366,2.883,2.366c1.262,0,2.281-0.414,3.059-1.241C97.031,68.708,97.418,67.516,97.422,65.962z"/>
	<path fill="#FECE82" d="M43.148,66.247c1.504,2.435-2.921,8.81-13.128,2.519C11.395,57.286,19.27,34.708,19.27,34.708
		C13.563,58.575,38.395,58.566,43.148,66.247z M46.164,15.528c-17.25,0-31.234,13.985-31.234,31.236
		c0,8.668,3.605,16.397,9.304,22.057c0.329,0.259,0.813,0.656,1.446,1.138c1.664,1.312,4.562,3.431,8.558,4.987
		c3.137,1.113,7.981,1.125,6.91,1.15c1.082,0.043,4.012-0.158,5.082-0.392c1.063-0.233,2.102-0.625,3.067-1.156
		c1.93-1.063,3.543-2.698,4.637-4.633c1.093-1.938,1.675-4.164,1.687-6.401c0.02-2.244-0.574-4.505-1.715-6.457
		c-0.57-0.978-1.273-1.875-2.074-2.677c-0.801-0.797-1.707-1.485-2.668-2.067c-0.484-0.293-0.98-0.554-1.488-0.797
		c-0.492-0.233-0.961-0.459-1.434-0.707c-0.949-0.492-1.871-1.019-2.765-1.588c-1.789-1.146-3.481-2.443-4.973-3.931
		c-1.492-1.488-2.793-3.164-3.781-5.004c-0.993-1.832-1.668-3.836-1.864-5.891c-0.203-2.05,0.102-4.14,0.914-6.023
		c0.801-1.891,2.122-3.551,3.747-4.844c1.621-1.301,3.539-2.222,5.535-2.941c3.996-1.426,8.367-1.75,12.586-1.043
		c4.23,0.668,8.308,2.289,11.996,4.543l0.011-0.016c-5.597-5.301-13.16-8.555-21.48-8.555L46.164,15.528z"/>
	<path fill="#FECE82" d="M39.113,36.306c0,0,13.45,7.882,22.317,3.816c9.586-4.395,8.015-13.461,8.015-13.461
		c3.918,4.852,6.328,12.766,2.313,17.176C65.059,51.195,47.34,52.04,39.113,36.306z"/>
</g>
</svg>
