<?xml version="1.0" encoding="UTF-8" standalone="no"?>
<!-- Generator: Adobe Illustrator 16.0.0, SVG Export Plug-In . SVG Version: 6.00 Build 0)  -->

<svg
   xmlns:dc="http://purl.org/dc/elements/1.1/"
   xmlns:cc="http://creativecommons.org/ns#"
   xmlns:rdf="http://www.w3.org/1999/02/22-rdf-syntax-ns#"
   xmlns:svg="http://www.w3.org/2000/svg"
   xmlns="http://www.w3.org/2000/svg"
   xmlns:xlink="http://www.w3.org/1999/xlink"
   xmlns:sodipodi="http://sodipodi.sourceforge.net/DTD/sodipodi-0.dtd"
   xmlns:inkscape="http://www.inkscape.org/namespaces/inkscape"
   version="1.1"
   id="Layer_1"
   x="0px"
   y="0px"
   width="205.394"
   height="64.049835"
   viewBox="0 0 205.394 64.049835"
   enable-background="new 0 0 232 92"
   xml:space="preserve"
   inkscape:version="0.91 r13725"
   sodipodi:docname="Logo.svg"><metadata
     id="metadata53"><rdf:RDF><cc:Work
         rdf:about=""><dc:format>image/svg+xml</dc:format><dc:type
           rdf:resource="http://purl.org/dc/dcmitype/StillImage" /><dc:title></dc:title></cc:Work></rdf:RDF></metadata><defs
     id="defs51" /><sodipodi:namedview
     pagecolor="#ffffff"
     bordercolor="#666666"
     borderopacity="1"
     objecttolerance="10"
     gridtolerance="10"
     guidetolerance="10"
     inkscape:pageopacity="0"
     inkscape:pageshadow="2"
     inkscape:window-width="1056"
     inkscape:window-height="610"
     id="namedview49"
     showgrid="false"
     fit-margin-top="0"
     fit-margin-left="0"
     fit-margin-right="0"
     fit-margin-bottom="0"
     inkscape:zoom="1.3362069"
     inkscape:cx="26.605484"
     inkscape:cy="31.101837"
     inkscape:window-x="0"
     inkscape:window-y="0"
     inkscape:window-maximized="0"
     inkscape:current-layer="Layer_1" /><g
     id="Layer_2"
     display="none"
     style="display:none;opacity:0.7"
     transform="translate(-14.93,-13.052)"><g
       display="inline"
       id="g4"
       style="display:inline;opacity:0.4"><g
         id="g6"><image
           sodipodi:absref="/Users/siavash/Desktop/sereneaudio.com/images/icons/D773233A2A8DA9CE.png"
           xlink:href="D773233A2A8DA9CE.png"
           style="overflow:visible"
           id="image8"
           transform="translate(48,-21.5)"
           height="103"
           width="208"
           enable-background="new    "
           overflow="visible" /></g></g><g
       display="inline"
       id="g10"
       style="display:inline;opacity:0.4"><g
         id="g12"><image
           sodipodi:absref="/Users/siavash/Desktop/sereneaudio.com/images/icons/D773233A2A8DA9D8.png"
           xlink:href="D773233A2A8DA9D8.png"
           style="overflow:visible"
           id="image14"
           transform="translate(49,12.5)"
           height="101"
           width="170"
           enable-background="new    "
           overflow="visible" /></g></g><g
       display="inline"
       id="g16"
       style="display:inline;opacity:0.4"><g
         id="g18"><image
           sodipodi:absref="/Users/siavash/Desktop/sereneaudio.com/images/icons/D773233A2A8DA9D9.png"
           xlink:href="D773233A2A8DA9D9.png"
           style="overflow:visible"
           id="image20"
           transform="translate(-21,-18.5)"
           height="133"
           width="126"
           enable-background="new    "
           overflow="visible" /></g></g><g
       display="inline"
       id="g22"
       style="display:inline;opacity:0.4"><g
         id="g24"><image
           sodipodi:absref="/Users/siavash/Desktop/sereneaudio.com/images/icons/D773233A2A8DA9DB.png"
           xlink:href="D773233A2A8DA9DB.png"
           style="overflow:visible"
           id="image26"
           transform="translate(4,-7.5)"
           height="95"
           width="107"
           enable-background="new    "
           overflow="visible" /></g></g></g><g
     id="Shadow"
     style="opacity:0.3"
     transform="translate(-14.93,-13.052)"><g
       id="g29"><g
         id="Layer_1_8_"><path
           d="m 203.387,43.743 12.199,-29.691 4.738,0 -12.199,29.691 -4.738,0 z m -14.625,-13.82 8.293,0 c -0.082,-1.395 -0.578,-2.446 -1.484,-3.157 -0.734,-0.578 -1.621,-0.867 -2.66,-0.871 -0.996,0.004 -1.867,0.332 -2.621,0.989 -0.888,0.738 -1.399,1.75 -1.528,3.039 z m 14.453,3.793 -14.453,0 c 0.023,1.843 0.551,3.226 1.582,4.144 0.812,0.766 1.812,1.145 3,1.145 1.078,0 2,-0.301 2.766,-0.906 0.602,-0.473 1.391,-1.407 2.367,-2.805 l 4.621,2.41 c -2.082,3.867 -5.48,5.801 -10.188,5.805 -3.188,-0.004 -5.715,-1.004 -7.582,-3.004 -1.82,-1.895 -2.727,-4.367 -2.723,-7.422 -0.004,-3.684 0.91,-6.551 2.742,-8.606 1.828,-2.05 4.348,-3.078 7.562,-3.082 3.578,0.004 6.25,1.239 8.016,3.711 1.497,2.133 2.263,5.004 2.29,8.61 z m -40.899,9.238 0,-21.008 6.156,0 0,1.856 c 1.367,-1.602 3.395,-2.403 6.082,-2.407 4.238,0.004 6.359,2.016 6.359,6.039 l 0,15.52 -6.16,0 0,-13.148 c -0.004,-2.29 -1.004,-3.434 -3.004,-3.438 -2.188,0.004 -3.281,1.176 -3.277,3.516 l 0,13.07 -6.156,0 z m -16.363,-13.031 8.293,0 c -0.082,-1.395 -0.578,-2.446 -1.484,-3.157 -0.734,-0.578 -1.621,-0.867 -2.66,-0.871 -0.996,0.004 -1.867,0.332 -2.621,0.989 -0.887,0.738 -1.399,1.75 -1.528,3.039 z m 14.453,3.793 -14.453,0 c 0.023,1.843 0.551,3.226 1.582,4.144 0.812,0.766 1.812,1.145 3,1.145 1.078,0 2,-0.301 2.766,-0.906 0.602,-0.473 1.391,-1.407 2.367,-2.805 l 4.621,2.41 c -2.082,3.867 -5.48,5.801 -10.188,5.805 -3.189,-0.004 -5.715,-1.004 -7.582,-3.004 -1.82,-1.895 -2.727,-4.367 -2.723,-7.422 -0.004,-3.684 0.91,-6.551 2.742,-8.606 1.828,-2.05 4.348,-3.078 7.562,-3.082 3.578,0.004 6.25,1.239 8.016,3.711 1.497,2.133 2.263,5.004 2.29,8.61 z m -32.109,9.238 0,-21.008 6.156,0 0,2.133 c 1.367,-1.238 3.289,-1.949 5.766,-2.133 l 0.039,5.43 -0.668,0.078 c -1.926,0.242 -3.242,0.57 -3.949,0.984 -0.797,0.477 -1.191,1.274 -1.188,2.399 l 0,12.117 -6.156,0 z m -16.364,-13.031 8.294,0 c -0.082,-1.395 -0.578,-2.446 -1.484,-3.157 -0.734,-0.578 -1.621,-0.867 -2.66,-0.871 -0.996,0.004 -1.867,0.332 -2.621,0.989 -0.888,0.738 -1.4,1.75 -1.529,3.039 z m 14.454,3.793 -14.454,0 c 0.024,1.843 0.551,3.226 1.582,4.144 0.813,0.766 1.813,1.145 3,1.145 1.078,0 2,-0.301 2.767,-0.906 0.602,-0.473 1.391,-1.407 2.367,-2.805 l 4.621,2.41 c -2.082,3.867 -5.48,5.801 -10.188,5.805 -3.188,-0.004 -5.715,-1.004 -7.582,-3.004 -1.821,-1.895 -2.727,-4.367 -2.723,-7.422 -0.004,-3.684 0.91,-6.551 2.742,-8.606 1.828,-2.05 4.348,-3.078 7.563,-3.082 3.578,0.004 6.25,1.239 8.016,3.711 1.496,2.133 2.261,5.004 2.289,8.61 z m -21.286,-9.282 -3.793,3.711 c -0.582,-0.679 -1.461,-1.234 -2.644,-1.656 -1.055,-0.396 -2.11,-0.59 -3.16,-0.594 -1.766,0.004 -2.649,0.543 -2.645,1.621 -0.004,0.922 1.078,1.606 3.238,2.051 3.211,0.688 5.196,1.199 5.961,1.539 2.157,1.004 3.239,2.637 3.239,4.899 0,2.554 -1,4.492 -3,5.804 -1.711,1.133 -3.872,1.696 -6.477,1.7 -2.215,-0.004 -4.109,-0.344 -5.687,-1.028 -1.45,-0.605 -2.977,-1.644 -4.579,-3.121 l 3.829,-3.316 c 2.054,1.976 4.265,2.961 6.636,2.961 2.235,0 3.352,-0.711 3.356,-2.133 -0.004,-0.84 -1.082,-1.469 -3.239,-1.895 -3.16,-0.656 -5.148,-1.171 -5.961,-1.539 -2.164,-0.972 -3.242,-2.539 -3.238,-4.699 -0.004,-2.445 0.942,-4.328 2.84,-5.648 1.602,-1.129 3.617,-1.692 6.043,-1.696 3.156,0.004 6.25,1.016 9.281,3.039 z"
           id="path32"
           inkscape:connector-curvature="0" /><path
           d="m 171.988,54.169 c 3.34,0.004 6.039,0.976 8.094,2.922 2.055,1.949 3.082,4.66 3.082,8.134 0,3.476 -1.027,6.187 -3.082,8.135 -2.055,1.947 -4.754,2.918 -8.094,2.923 -3.348,-0.005 -6.047,-0.976 -8.098,-2.923 -2.055,-1.948 -3.082,-4.659 -3.078,-8.135 -0.004,-3.474 1.023,-6.185 3.078,-8.134 2.051,-1.946 4.751,-2.918 8.098,-2.922 z m 0,4.699 c -1.688,0.004 -2.965,0.612 -3.828,1.827 -0.797,1.117 -1.191,2.625 -1.188,4.529 -0.004,1.909 0.391,3.42 1.188,4.53 0.863,1.222 2.141,1.832 3.828,1.828 3.34,0.004 5.012,-2.194 5.016,-6.599 -0.004,-1.797 -0.398,-3.241 -1.184,-4.332 -0.898,-1.185 -2.175,-1.779 -3.832,-1.783 z m -12.851,-6.556 -6.156,0 0,-4.698 6.156,0 0,4.698 z m -6.157,2.409 6.156,0 0,21.006 -6.156,0 0,-21.006 z m -9.296,10.069 c -0.004,-4.078 -1.438,-6.117 -4.305,-6.121 -2.82,0.004 -4.23,2.187 -4.227,6.556 -0.004,4.371 1.406,6.553 4.227,6.553 2.867,-0.001 4.301,-2.328 4.305,-6.988 z m 6.16,-17.176 0,28.112 -5.922,0 0,-2.054 -0.082,0 c -1.367,1.738 -3.25,2.604 -5.645,2.609 -2.688,-0.005 -4.832,-0.871 -6.438,-2.609 -1.789,-1.891 -2.711,-4.653 -2.762,-8.289 -0.059,-3.84 0.887,-6.75 2.84,-8.727 1.602,-1.656 3.629,-2.484 6.082,-2.488 2.418,0.004 4.34,0.738 5.766,2.211 l 0,-8.767 6.161,0.002 0,0 z m -22.539,7.107 0,21.006 -6.16,0 0,-1.854 c -1.371,1.604 -3.398,2.405 -6.083,2.41 -4.238,-0.005 -6.355,-2.017 -6.355,-6.043 l 0,-15.519 6.156,0 0,13.741 c -0.004,1.897 0.997,2.847 3.004,2.845 2.18,0.002 3.273,-1.091 3.277,-3.279 l 0,-13.307 6.161,0 z m -21.891,5.53 0,11.095 c 0,1.975 0.183,3.438 0.554,4.381 l -5.687,0 c -0.211,-0.656 -0.344,-1.377 -0.395,-2.17 l -0.078,0 c -0.504,0.793 -1.41,1.448 -2.726,1.971 -1.211,0.5 -2.41,0.75 -3.59,0.755 -2.086,-0.005 -3.758,-0.543 -5.016,-1.621 -1.347,-1.134 -2.019,-2.672 -2.015,-4.621 -0.004,-2.392 0.957,-4.207 2.882,-5.449 1.629,-1.051 4.262,-1.827 7.899,-2.327 l 2.25,-0.318 0,-1.737 c -0.004,-1.496 -0.977,-2.246 -2.922,-2.25 -1.004,0.004 -1.754,0.215 -2.25,0.633 -0.504,0.425 -0.832,1.148 -0.988,2.173 l -5.922,0 c 0.125,-4.396 3.008,-6.591 8.648,-6.595 3.075,0.004 5.352,0.422 6.828,1.263 1.684,0.973 2.528,2.582 2.528,4.817 z m -5.922,6.711 0,-1.461 -4.145,1.183 c -1.976,0.556 -2.964,1.461 -2.961,2.728 -0.003,1.578 0.957,2.366 2.883,2.366 1.262,0 2.281,-0.414 3.059,-1.241 0.773,-0.829 1.16,-2.021 1.164,-3.575 z"
           id="path34"
           inkscape:connector-curvature="0" /><path
           d="m 45.218,67.247 c 1.504,2.435 -2.921,8.81 -13.128,2.519 C 13.465,58.286 21.34,35.708 21.34,35.708 15.633,59.575 40.465,59.566 45.218,67.247 Z M 48.234,16.528 C 30.984,16.528 17,30.513 17,47.764 c 0,8.668 3.605,16.397 9.304,22.057 0.329,0.259 0.813,0.656 1.446,1.138 1.664,1.312 4.562,3.431 8.558,4.987 3.137,1.113 7.981,1.125 6.91,1.15 1.082,0.043 4.012,-0.158 5.082,-0.392 1.063,-0.233 2.102,-0.625 3.067,-1.156 1.93,-1.063 3.543,-2.698 4.637,-4.633 1.093,-1.938 1.675,-4.164 1.687,-6.401 0.02,-2.244 -0.574,-4.505 -1.715,-6.457 C 55.406,57.079 54.703,56.182 53.902,55.38 53.101,54.583 52.195,53.895 51.234,53.313 50.75,53.02 50.254,52.759 49.746,52.516 49.254,52.283 48.785,52.057 48.312,51.809 47.363,51.317 46.441,50.79 45.547,50.221 43.758,49.075 42.066,47.778 40.574,46.29 39.082,44.802 37.781,43.126 36.793,41.286 35.8,39.454 35.125,37.45 34.929,35.395 c -0.203,-2.05 0.102,-4.14 0.914,-6.023 0.801,-1.891 2.122,-3.551 3.747,-4.844 1.621,-1.301 3.539,-2.222 5.535,-2.941 3.996,-1.426 8.367,-1.75 12.586,-1.043 4.23,0.668 8.308,2.289 11.996,4.543 l 0.011,-0.016 C 64.121,19.77 56.558,16.516 48.238,16.516 l -0.004,0.012 z"
           id="path36"
           inkscape:connector-curvature="0" /><path
           d="m 41.183,37.306 c 0,0 13.45,7.882 22.317,3.816 9.586,-4.395 8.015,-13.461 8.015,-13.461 3.918,4.852 6.328,12.766 2.313,17.176 -6.699,7.358 -24.418,8.203 -32.645,-7.531 z"
           id="path38"
           inkscape:connector-curvature="0" /></g></g></g><g
     id="Layer_1_1_"
     transform="translate(-14.93,-13.052)"><path
       d="m 201.316,42.743 12.199,-29.691 4.738,0 -12.199,29.691 -4.738,0 z m -14.625,-13.82 8.293,0 c -0.082,-1.395 -0.578,-2.446 -1.484,-3.157 -0.734,-0.578 -1.621,-0.867 -2.66,-0.871 -0.996,0.004 -1.867,0.332 -2.621,0.989 -0.887,0.738 -1.399,1.75 -1.528,3.039 z m 14.454,3.793 -14.453,0 c 0.023,1.843 0.551,3.226 1.582,4.144 0.812,0.766 1.812,1.145 3,1.145 1.078,0 2,-0.301 2.766,-0.906 0.602,-0.473 1.391,-1.407 2.367,-2.805 l 4.621,2.41 c -2.082,3.867 -5.48,5.801 -10.188,5.805 -3.188,-0.004 -5.715,-1.004 -7.582,-3.004 -1.82,-1.895 -2.727,-4.367 -2.723,-7.422 -0.004,-3.684 0.91,-6.551 2.742,-8.606 1.828,-2.05 4.348,-3.078 7.562,-3.082 3.578,0.004 6.25,1.239 8.016,3.711 1.497,2.133 2.262,5.004 2.29,8.61 z m -40.899,9.238 0,-21.008 6.156,0 0,1.856 c 1.367,-1.602 3.395,-2.403 6.082,-2.407 4.238,0.004 6.359,2.016 6.359,6.039 l 0,15.52 -6.16,0 0,-13.148 c -0.004,-2.29 -1.004,-3.434 -3.004,-3.438 -2.188,0.004 -3.281,1.176 -3.277,3.516 l 0,13.07 -6.156,0 z m -16.363,-13.031 8.293,0 c -0.082,-1.395 -0.578,-2.446 -1.484,-3.157 -0.734,-0.578 -1.621,-0.867 -2.66,-0.871 -0.996,0.004 -1.867,0.332 -2.621,0.989 -0.888,0.738 -1.399,1.75 -1.528,3.039 z m 14.453,3.793 -14.453,0 c 0.023,1.843 0.551,3.226 1.582,4.144 0.812,0.766 1.812,1.145 3,1.145 1.078,0 2,-0.301 2.766,-0.906 0.602,-0.473 1.391,-1.407 2.367,-2.805 l 4.621,2.41 c -2.082,3.867 -5.48,5.801 -10.188,5.805 -3.188,-0.004 -5.715,-1.004 -7.582,-3.004 -1.82,-1.895 -2.727,-4.367 -2.723,-7.422 -0.004,-3.684 0.91,-6.551 2.742,-8.606 1.828,-2.05 4.348,-3.078 7.562,-3.082 3.578,0.004 6.25,1.239 8.016,3.711 1.497,2.133 2.263,5.004 2.29,8.61 z m -32.109,9.238 0,-21.008 6.156,0 0,2.133 c 1.367,-1.238 3.289,-1.949 5.766,-2.133 l 0.039,5.43 -0.668,0.078 c -1.926,0.242 -3.242,0.57 -3.949,0.984 -0.797,0.477 -1.191,1.274 -1.188,2.399 l 0,12.117 -6.156,0 z m -16.364,-13.031 8.293,0 c -0.082,-1.395 -0.578,-2.446 -1.484,-3.157 -0.734,-0.578 -1.621,-0.867 -2.66,-0.871 -0.996,0.004 -1.867,0.332 -2.621,0.989 -0.887,0.738 -1.399,1.75 -1.528,3.039 z m 14.453,3.793 -14.454,0 c 0.024,1.843 0.551,3.226 1.582,4.144 0.813,0.766 1.813,1.145 3,1.145 1.078,0 2,-0.301 2.766,-0.906 0.602,-0.473 1.391,-1.407 2.367,-2.805 l 4.621,2.41 c -2.082,3.867 -5.48,5.801 -10.187,5.805 -3.188,-0.004 -5.715,-1.004 -7.582,-3.004 -1.821,-1.895 -2.727,-4.367 -2.723,-7.422 -0.004,-3.684 0.91,-6.551 2.742,-8.606 1.828,-2.05 4.348,-3.078 7.563,-3.082 3.578,0.004 6.25,1.239 8.015,3.711 1.497,2.133 2.263,5.004 2.29,8.61 z m -21.285,-9.282 -3.793,3.711 c -0.582,-0.679 -1.461,-1.234 -2.644,-1.656 -1.055,-0.396 -2.11,-0.59 -3.16,-0.594 -1.766,0.004 -2.649,0.543 -2.645,1.621 -0.004,0.922 1.078,1.606 3.238,2.051 3.211,0.688 5.196,1.199 5.961,1.539 2.157,1.004 3.239,2.637 3.239,4.899 0,2.554 -1,4.492 -3,5.804 -1.711,1.133 -3.872,1.696 -6.477,1.7 -2.215,-0.004 -4.109,-0.344 -5.687,-1.028 -1.45,-0.605 -2.977,-1.644 -4.579,-3.121 l 3.829,-3.316 c 2.054,1.976 4.265,2.961 6.636,2.961 2.235,0 3.352,-0.711 3.356,-2.133 -0.004,-0.84 -1.082,-1.469 -3.239,-1.895 -3.16,-0.656 -5.148,-1.171 -5.961,-1.539 -2.164,-0.972 -3.242,-2.539 -3.238,-4.699 -0.004,-2.445 0.942,-4.328 2.84,-5.648 1.602,-1.129 3.617,-1.692 6.043,-1.696 3.156,0.004 6.25,1.016 9.281,3.039 z"
       id="path41"
       inkscape:connector-curvature="0"
       style="fill:#fece82" /><path
       d="m 169.918,53.169 c 3.34,0.004 6.039,0.976 8.094,2.922 2.055,1.949 3.082,4.66 3.082,8.134 0,3.476 -1.027,6.187 -3.082,8.135 -2.055,1.947 -4.754,2.918 -8.094,2.923 -3.348,-0.005 -6.047,-0.976 -8.098,-2.923 -2.055,-1.948 -3.082,-4.659 -3.078,-8.135 -0.004,-3.474 1.023,-6.185 3.078,-8.134 2.051,-1.946 4.75,-2.918 8.098,-2.922 z m 0,4.699 c -1.688,0.004 -2.965,0.612 -3.828,1.827 -0.797,1.117 -1.191,2.625 -1.188,4.529 -0.004,1.909 0.391,3.42 1.188,4.53 0.863,1.222 2.141,1.832 3.828,1.828 3.34,0.004 5.012,-2.194 5.016,-6.599 -0.004,-1.797 -0.398,-3.241 -1.184,-4.332 -0.898,-1.185 -2.176,-1.779 -3.832,-1.783 z m -12.852,-6.556 -6.156,0 0,-4.698 6.156,0 0,4.698 z m -6.156,2.409 6.156,0 0,21.006 -6.156,0 0,-21.006 z m -9.297,10.069 c -0.004,-4.078 -1.438,-6.117 -4.305,-6.121 -2.82,0.004 -4.23,2.187 -4.227,6.556 -0.004,4.371 1.406,6.553 4.227,6.553 2.868,-0.001 4.301,-2.328 4.305,-6.988 z m 6.16,-17.176 0,28.112 -5.922,0 0,-2.054 -0.082,0 c -1.367,1.738 -3.25,2.604 -5.645,2.609 -2.688,-0.005 -4.832,-0.871 -6.438,-2.609 -1.789,-1.891 -2.711,-4.653 -2.762,-8.289 -0.059,-3.84 0.887,-6.75 2.84,-8.727 1.602,-1.656 3.629,-2.484 6.082,-2.488 2.418,0.004 4.34,0.738 5.766,2.211 l 0,-8.767 6.161,0.002 0,0 z m -22.539,7.107 0,21.006 -6.16,0 0,-1.854 c -1.371,1.604 -3.398,2.405 -6.082,2.41 -4.238,-0.005 -6.355,-2.017 -6.355,-6.043 l 0,-15.519 6.156,0 0,13.741 c -0.004,1.897 0.996,2.847 3.004,2.845 2.18,0.002 3.273,-1.091 3.277,-3.279 l 0,-13.307 6.16,0 z m -21.89,5.53 0,11.095 c 0,1.975 0.183,3.438 0.554,4.381 l -5.687,0 C 98,74.071 97.867,73.35 97.816,72.557 l -0.078,0 c -0.504,0.793 -1.41,1.448 -2.726,1.971 -1.211,0.5 -2.41,0.75 -3.59,0.755 -2.086,-0.005 -3.758,-0.543 -5.016,-1.621 -1.347,-1.134 -2.019,-2.672 -2.015,-4.621 -0.004,-2.392 0.957,-4.207 2.882,-5.449 1.629,-1.051 4.262,-1.827 7.899,-2.327 l 2.25,-0.318 0,-1.737 c -0.004,-1.496 -0.977,-2.246 -2.922,-2.25 -1.004,0.004 -1.754,0.215 -2.25,0.633 -0.504,0.425 -0.832,1.148 -0.988,2.173 l -5.922,0 c 0.125,-4.396 3.008,-6.591 8.648,-6.595 3.075,0.004 5.352,0.422 6.828,1.263 1.684,0.973 2.528,2.582 2.528,4.817 z m -5.922,6.711 0,-1.461 -4.145,1.183 c -1.976,0.556 -2.964,1.461 -2.961,2.728 -0.003,1.578 0.957,2.366 2.883,2.366 1.262,0 2.281,-0.414 3.059,-1.241 0.773,-0.829 1.16,-2.021 1.164,-3.575 z"
       id="path43"
       inkscape:connector-curvature="0"
       style="fill:#fece82" /><path
       d="m 43.148,66.247 c 1.504,2.435 -2.921,8.81 -13.128,2.519 C 11.395,57.286 19.27,34.708 19.27,34.708 13.563,58.575 38.395,58.566 43.148,66.247 Z m 3.016,-50.719 c -17.25,0 -31.234,13.985 -31.234,31.236 0,8.668 3.605,16.397 9.304,22.057 0.329,0.259 0.813,0.656 1.446,1.138 1.664,1.312 4.562,3.431 8.558,4.987 3.137,1.113 7.981,1.125 6.91,1.15 1.082,0.043 4.012,-0.158 5.082,-0.392 1.063,-0.233 2.102,-0.625 3.067,-1.156 1.93,-1.063 3.543,-2.698 4.637,-4.633 1.093,-1.938 1.675,-4.164 1.687,-6.401 0.02,-2.244 -0.574,-4.505 -1.715,-6.457 C 53.336,56.079 52.633,55.182 51.832,54.38 51.031,53.583 50.125,52.895 49.164,52.313 48.68,52.02 48.184,51.759 47.676,51.516 47.184,51.283 46.715,51.057 46.242,50.809 45.293,50.317 44.371,49.79 43.477,49.221 41.688,48.075 39.996,46.778 38.504,45.29 37.012,43.802 35.711,42.126 34.723,40.286 33.73,38.454 33.055,36.45 32.859,34.395 c -0.203,-2.05 0.102,-4.14 0.914,-6.023 0.801,-1.891 2.122,-3.551 3.747,-4.844 1.621,-1.301 3.539,-2.222 5.535,-2.941 3.996,-1.426 8.367,-1.75 12.586,-1.043 4.23,0.668 8.308,2.289 11.996,4.543 l 0.011,-0.016 C 62.051,18.77 54.488,15.516 46.168,15.516 l -0.004,0.012 z"
       id="path45"
       inkscape:connector-curvature="0"
       style="fill:#fece82" /><path
       d="m 39.113,36.306 c 0,0 13.45,7.882 22.317,3.816 9.586,-4.395 8.015,-13.461 8.015,-13.461 3.918,4.852 6.328,12.766 2.313,17.176 -6.699,7.358 -24.418,8.203 -32.645,-7.531 z"
       id="path47"
       inkscape:connector-curvature="0"
       style="fill:#fece82" /></g></svg>
