<?xml version="1.0" encoding="utf-8"?>
<!-- Generator: Adobe Illustrator 16.0.0, SVG Export Plug-In . SVG Version: 6.00 Build 0)  -->
<!DOCTYPE svg PUBLIC "-//W3C//DTD SVG 1.1//EN" "http://www.w3.org/Graphics/SVG/1.1/DTD/svg11.dtd">
<svg version="1.1" xmlns="http://www.w3.org/2000/svg" xmlns:xlink="http://www.w3.org/1999/xlink" x="0px" y="0px"
	 width="109.893px" height="94.893px" viewBox="0 0 109.893 94.893" enable-background="new 0 0 109.893 94.893"
	 xml:space="preserve">
<g id="Layer_2">
	<path id="path2993_1_" opacity="0.2" fill="none" stroke="#231F20" stroke-width="8" stroke-linejoin="round" d="M76.676,54.054
		H21.811L11,16.217h77.027"/>

		<path id="path2991_1_" opacity="0.2" fill="none" stroke="#231F20" stroke-width="8" stroke-linecap="round" stroke-linejoin="round" d="
		M102.892,7h-8.457L71.883,67.946H26.78"/>
	<path id="path2995_1_" opacity="0.2" stroke="#231F20" stroke-miterlimit="10" d="M75.865,84.272c0,4.746-3.93,8.593-8.774,8.592
		c-4.846,0-8.774-3.847-8.775-8.592c0-4.745,3.928-8.593,8.775-8.593C71.935,75.678,75.865,79.525,75.865,84.272L75.865,84.272z"/>
	<path id="path2997_1_" opacity="0.2" stroke="#231F20" stroke-miterlimit="10" d="M40.027,84.257
		c-0.002,4.755-3.933,8.606-8.779,8.604c-4.843-0.003-8.768-3.854-8.77-8.604c-0.003-4.753,3.924-8.609,8.77-8.612
		c4.847-0.002,8.777,3.85,8.779,8.604C40.027,84.252,40.027,84.254,40.027,84.257z"/>
</g>
<g id="svg2" xmlns:dc="http://purl.org/dc/elements/1.1/" xmlns:cc="http://creativecommons.org/ns#" xmlns:rdf="http://www.w3.org/1999/02/22-rdf-syntax-ns#" xmlns:svg="http://www.w3.org/2000/svg">
	<path id="path2993_2_" fill="none" stroke="#F2C987" stroke-width="8" stroke-linecap="round" stroke-linejoin="round" d="
		M75.676,52.054H20.811L10,14.217h77.027"/>
	<path id="path2991_2_" fill="none" stroke="#F2C987" stroke-width="8" stroke-linecap="round" stroke-linejoin="round" d="
		M101.892,5h-8.457L70.883,65.946H25.78"/>
	<path id="path2995_2_" fill="#F2C987" d="M74.865,82.272c0,4.746-3.93,8.593-8.774,8.592c-4.846,0-8.774-3.847-8.775-8.592
		c0-4.745,3.928-8.593,8.775-8.593C70.935,73.678,74.865,77.525,74.865,82.272L74.865,82.272z"/>
	<path id="path2997_2_" fill="#F2C987" d="M39.027,82.257c-0.002,4.755-3.933,8.606-8.779,8.604
		c-4.843-0.003-8.768-3.854-8.77-8.604c-0.003-4.753,3.924-8.609,8.77-8.612c4.847-0.002,8.777,3.85,8.779,8.604
		C39.027,82.252,39.027,82.254,39.027,82.257z"/>
</g>
</svg>
